/* XPM */
static char *result[] = {
/* columns rows colors chars-per-pixel */
"32 32 89 1 ",
"  c #C8871D",
". c #DF8F1A",
"X c #DC9317",
"o c #DE941A",
"O c #DF9A1C",
"+ c #E59B0F",
"@ c #E59D15",
"# c #E89E14",
"$ c #E0961B",
"% c #E39B1A",
"& c #E89F18",
"* c #DDA017",
"= c #CFBC1B",
"- c #D7BB19",
"; c #E6A30F",
": c #EFBE0A",
"> c #F3BF0E",
", c #E6A215",
"< c #E9A416",
"1 c #E5AB13",
"2 c #ECAB15",
"3 c #E6A219",
"4 c #E9A318",
"5 c #E5AC1B",
"6 c #EBAB1B",
"7 c #E3BF15",
"8 c #EEBE15",
"9 c #E4B41D",
"0 c #EBB21C",
"q c #EEBE1A",
"w c #F0BD1B",
"e c #C88A2A",
"r c #DD9923",
"t c #E3A720",
"y c #E4AB23",
"u c #E4B121",
"i c #ECB125",
"p c #D4C31D",
"a c #F4C50E",
"s c #F4CA0E",
"d c #F8CC0F",
"f c #E2C216",
"g c #EFC413",
"h c #E3C41A",
"j c #F3C412",
"k c #F4CA12",
"l c #F1C11A",
"z c #F3CB19",
"x c #FBE602",
"c c #FCE901",
"v c #FAE60C",
"b c #FBE90B",
"n c #F9E612",
"m c #FAEA10",
"M c #F8E61D",
"N c #D5C520",
"B c #DAC524",
"V c #DBCC22",
"C c #D2C429",
"Z c #D2D123",
"A c #D9D725",
"S c #D8E32B",
"D c #D6E92D",
"F c #CDDD49",
"G c #F7EF4A",
"H c #FBF74A",
"J c #FAF554",
"K c #FBFA56",
"L c #FBF65C",
"P c #FCFB5D",
"I c #D5E777",
"U c #FAF761",
"Y c #FDFC64",
"T c #FBF76D",
"R c #FDFD6B",
"E c #FDFD73",
"W c #FDFD7B",
"Q c #F9F6AE",
"! c #F8F2B5",
"~ c #FBF9B6",
"^ c #F8F6BC",
"/ c #F7F8BE",
"( c #FBFABB",
") c #F8F5C3",
"_ c #FBFBC4",
"` c #FAF6CD",
"' c #FCFBC9",
"] c #F9F4D0",
"[ c #FBFAD0",
/* pixels */
"40YYPR(_____EYRRRRYRYR__RYRPkaoo",
"6iLPKR((((~~RYRRPYPYYR((RYRUzjo$",
"^!nxbbbmvmmvbbcvzkkkbbvvvcvbxxo.",
"[_nxxxcccccccccckkkkxcxxxxcccxo.",
"_~vcxccckkksccksksxxcxcccccckjo.",
"_~nxccccsjascckssdcccccccccxkjo.",
"_(q>cckssjkskkxxcccccxxxkksskjo.",
"(Qqgccsjjksskkxccccccxxczkkkajo.",
"mm3,ssjjksxxcxccccccccccxxcxkj$.",
"cc,#aajakkxccccccxccxxcxcccxkj$.",
"cc,#jajkxxcccckaasgsccxcccksjj..",
"cx,,aajsxxcxxbjjjgjgxxxxxxljj8$o",
"dk4,,1jjjlj8334,@,@+@+X@3,334,oo",
"dd45,2kgl8wq44#4,31@ e@#,33%&3r$",
"fpp-11pppp11OOoXXXpZFIt,,,XX.o,,",
"hhhC99BNpp56%$OO*OVASDu311rOo%22",
"YT)_^^TPPKLJq83*GH/_//TPLPPJJKPL",
"EW''''ERRYYYlg,3YR'''_ERRRYYPPRE",
"bbmmvmvxvxbb43+5)/Mvmvbcxbbbbbbb",
"ccccxcxxxccx,,,y`'vxccxccxxxxxcc",
"cccccccccckk<,;y`'vxkjkscccccccc",
"cccccccccckj<,;y`/vxljjsxccccccc",
"dskkxcccssjj,,;y`_lasaaasssscccc",
"dskkxcccaslj2229`(w>jjsaaakdcccc",
"aaa>jjaaaj4<jk-hYJ,@66adaaaasasd",
"aaj>aj>jj>&@jg7hKJ@#66aaaaaaaaas",
"aaajaj4&,,#,jgO*bb4#6666adaaaass",
"a>>>j8&&@&,2jg$,cb<&6666aaaaaaaa",
"2<,,,,&3222241X@kz133##33@,&+,,4",
"2444&&&&222244$Ogg443&4&&&&&#&&&",
"4<<,$$oO,<<4$@%%224,%o$Ooooo$$o$",
"2<<2$$$O<2<4%%$$<<<2$%$o$o$$$$$%"
};
