/* XPM */
static char *d9f85ef79e05453ff980b25b0e3f8bc5HuxNU4BO52WyvfKo[] = {
/* columns rows colors chars-per-pixel */
"33 32 175 2 ",
"   c None",
".  c #3C170D",
"X  c #351213",
"o  c #341719",
"O  c #3A1618",
"+  c #3C1B1C",
"@  c #3A1917",
"#  c #3F2217",
"$  c #3F201E",
"%  c #361D20",
"&  c #381F21",
"*  c #4F0502",
"=  c #4F0909",
"-  c #530400",
";  c #590401",
":  c #550A00",
">  c #5F110F",
",  c #521B07",
"<  c #461414",
"1  c #441B15",
"2  c #491915",
"3  c #451C19",
"4  c #4B1C1A",
"5  c #5D1413",
"6  c #551B1D",
"7  c #58191A",
"8  c #630301",
"9  c #6C0403",
"0  c #6E0904",
"q  c #650E0C",
"w  c #690B07",
"e  c #7F0706",
"r  c #710804",
"t  c #790D04",
"y  c #740D08",
"u  c #7C0D0A",
"i  c #61170C",
"p  c #751302",
"a  c #7A1400",
"s  c #7C120E",
"d  c #721A0E",
"f  c #6C0D11",
"g  c #631110",
"h  c #6B1B16",
"j  c #6D1E1A",
"k  c #691917",
"l  c #751312",
"z  c #7D1411",
"x  c #741A16",
"c  c #731B18",
"v  c #53220B",
"b  c #43211E",
"n  c #4B211C",
"m  c #54211F",
"M  c #5F221F",
"N  c #622114",
"B  c #65201B",
"V  c #6F2019",
"C  c #73221C",
"Z  c #78211A",
"A  c #591C21",
"S  c #4C2526",
"D  c #452928",
"F  c #4D2B29",
"G  c #532220",
"H  c #542827",
"J  c #522C2C",
"K  c #5D2A2A",
"L  c #4F312F",
"P  c #4D2D30",
"I  c #573031",
"U  c #6A2520",
"Y  c #612E2D",
"T  c #6E312E",
"R  c #78312D",
"E  c #75312E",
"W  c #7C3835",
"Q  c #7C3231",
"!  c #774441",
"~  c #850B03",
"^  c #840F0C",
"/  c #890A0B",
"(  c #83120E",
")  c #921408",
"_  c #911E0C",
"`  c #8B0F11",
"'  c #831211",
"]  c #801815",
"[  c #8E1816",
"{  c #8C1113",
"}  c #911412",
"|  c #9C1615",
" . c #94191A",
".. c #9B1D1B",
"X. c #A51F1D",
"o. c #862119",
"O. c #98211B",
"+. c #95261D",
"@. c #A3201E",
"#. c #A8211E",
"$. c #AA2B1A",
"%. c #BB281E",
"&. c #AA311E",
"*. c #9B1D20",
"=. c #822C2D",
"-. c #9E2421",
";. c #81302F",
":. c #8D3C2B",
">. c #812F31",
",. c #833333",
"<. c #A52321",
"1. c #A82121",
"2. c #AC2924",
"3. c #A12C23",
"4. c #B42524",
"5. c #BC2522",
"6. c #B32A26",
"7. c #BC2A25",
"8. c #BB2729",
"9. c #B22B28",
"0. c #BB2B2A",
"q. c #A33923",
"w. c #BD312B",
"e. c #B93123",
"r. c #C31E1D",
"t. c #C4221F",
"y. c #C91F20",
"u. c #C31E22",
"i. c #C42423",
"p. c #CA2424",
"a. c #C22824",
"s. c #C92826",
"d. c #C82528",
"f. c #C32B2B",
"g. c #CC2829",
"h. c #D6292D",
"j. c #C3322F",
"k. c #C23433",
"l. c #814141",
"z. c #865555",
"x. c #8D5554",
"c. c #8F5957",
"v. c #815759",
"b. c #825D5B",
"n. c #8B5D5C",
"m. c #935657",
"M. c #925759",
"N. c #935D59",
"B. c #9E5E5B",
"V. c #B75643",
"C. c #9D635C",
"Z. c #956859",
"A. c #9B705F",
"S. c #A2645E",
"D. c #AB6E52",
"F. c #9B5F61",
"G. c #9B6462",
"H. c #9B6864",
"J. c #99706E",
"K. c #A36461",
"L. c #A36965",
"P. c #A86866",
"I. c #AF6B6A",
"U. c #A86867",
"Y. c #A57368",
"T. c #BE8266",
"R. c #D58E78",
"E. c #EB9B80",
"W. c #CAA6A6",
"Q. c #CEB5B2",
"!. c #D1B4B2",
"~. c #D4B8B5",
"^. c #FFC2A6",
"/. c #FFC9B0",
"(. c #FFF6F9",
/* pixels */
"                  (.(.                                            ",
"                                                                  ",
"                o I S H S F F J S S S F J J F D %                 ",
"                b n.z.N.c.N.m.m.F.M.x.c.N.n.b.b.o                 ",
"                3 G.l.W R ,.;.=.,.>.,.Q E T ! J.$                 ",
"                3 G.k - ; 8 9 9 9 8 9 8 ; * M H.3                 ",
"                1 K.j q l s [  ...*. .u l q B H.3                 ",
"                3 L.h w ] ^ 1.k.0.0.X./ ( w h C.3                 ",
"                3 B.C 0 ( 2.8.f.i.5.7.9.} 0 h C.1                 ",
"                4 S.c y O.0.f.g.p.i.a.8...u Z S.1                 ",
"                < P.c s <.w.i.y.p.i.i.7.X.( Z S.1                 ",
"                4 K.x s ..0.t.p.p.p.i.7.X.( c C.1                 ",
"                4 B.C o.3.w.a.t.p.p.i.7.#.( x S.3                 ",
"                3 K.i 8 t ) 7.t.i.p.i.7.1.' c S.3                 ",
"                @ Y.N :.V._ e.a.i.p.i.8.1.' c K.3 Q.              ",
"                # Z., R./.q.$.7.a.s.i.8.1.' c K.3 Q.              ",
"                . A.v T.^.p &.%.a.i.5.0.#.( x K.3 Q.              ",
"                n Z.v D.E.a $.7.i.i.i.0.#.^ x K.3 Q.              ",
"                1 Y.N : p ~ w.i.p.p.i.0.#.^ c S.4 !.              ",
"                n C.N d +.2.5.i.p.p.i.8.1.' c K.4 !.              ",
"                4 K.h l -.k.i.p.p.i.i.8.1.' c K.4 !.              ",
"                O U.j z ..8.u.h.p.p.a.8.1.' c G.3 !.              ",
"                + L.h s <.f.i.r.p.p.a.6.@.z j C.3 Q.              ",
"                b C.j ] <.4.i.p.p.s.a.6.@.s j C.1 Q.              ",
"                n N.h z ..0.%.s.p.r.5.0.<.t C C.1 ~.              ",
"                1 P.j r } 4.7.i.i.f.j.6.} 9 V S.2 ~.              ",
"                < I.h 8 e | 8.7.8.4.| ~ e 0 C C.4 W.              ",
"              X Y K.j f z e ` / } { ^ z z q U G.K O               ",
"              X z.x.7 5 5 g l f f q q g > = m n.v.O               ",
"              + J H 4 n m G A 7 6 6 6 m K G b L P &               ",
"                                                                  ",
"                                                                  "
};
