/* XPM */
static char *cc73274830bc4cbd9a74e1dcb8853850dJ6IjdHXJW9MugcT[] = {
/* columns rows colors chars-per-pixel */
"32 32 177 2 ",
"   c black",
".  c #000100",
"X  c #020300",
"o  c #061303",
"O  c #040B02",
"+  c #172211",
"@  c #293923",
"#  c #020701",
"$  c #10180C",
"%  c #151D13",
"&  c #1B2C15",
"*  c #33402D",
"=  c #598651",
"-  c #21321C",
";  c #0D0D0A",
":  c #0D1F0A",
">  c #3A4B30",
",  c #293F25",
"<  c #2DA82E",
"1  c #236D36",
"2  c #262B22",
"3  c #2F2C26",
"4  c #537241",
"5  c #45622D",
"6  c #13300D",
"7  c #5E7E45",
"8  c #5B794A",
"9  c #498782",
"0  c #F4F7F5",
"q  c #F7F6F9",
"w  c #486F39",
"e  c #B6E32F",
"r  c #F2F2EE",
"t  c #4FBFD1",
"y  c #AEEF33",
"u  c #315A2C",
"i  c #2DC557",
"p  c #3CBB5C",
"a  c #2DBD54",
"s  c #53B8D0",
"d  c #31623A",
"f  c #1E4337",
"g  c #231A1A",
"h  c #1E330D",
"j  c #182514",
"k  c #29441E",
"l  c #3E3E3C",
"z  c #AAA193",
"x  c #394F2F",
"c  c #CFD2CB",
"v  c #F7F7EB",
"b  c #658D58",
"n  c #5B773F",
"m  c #6F885B",
"M  c #B8DC28",
"N  c #6E8C4F",
"B  c #39582E",
"V  c #538243",
"C  c #4E8A8F",
"Z  c #254C23",
"A  c #67975F",
"S  c #E7C9AC",
"D  c #235F2C",
"F  c #275825",
"G  c #6EA369",
"H  c #5A8D86",
"J  c #81C245",
"K  c #998F85",
"L  c #776C64",
"P  c #2EB559",
"I  c #51B6BF",
"U  c #EED2B2",
"Y  c #ADE824",
"T  c #A8E041",
"R  c #86B46D",
"E  c #625B4F",
"W  c #E3C3A8",
"Q  c #4FB8C0",
"!  c #F8F2E4",
"~  c #B4E92C",
"^  c #64B7CE",
"/  c #7CB33F",
"(  c #7CD42E",
")  c #DFF1DF",
"_  c #3E9E70",
"`  c #245D6B",
"'  c #143621",
"]  c #1D3A13",
"[  c #4F9C74",
"{  c #1E3335",
"}  c #8ABD84",
"|  c #18421D",
" . c #234C43",
".. c #476662",
"X. c #2F934E",
"o. c #35666B",
"O. c #85857E",
"+. c #232424",
"@. c #6A7065",
"#. c #69925D",
"$. c #505053",
"%. c #848286",
"&. c #556A19",
"*. c #536C23",
"=. c #5F8956",
"-. c #558054",
";. c #313730",
":. c #D8D6D7",
">. c #5B624C",
",. c #79B26E",
"<. c #4F7D4A",
"1. c #B3B995",
"2. c #72836B",
"3. c #88A241",
"4. c #ACCD3B",
"5. c #268334",
"6. c #9ED244",
"7. c #BCEC39",
"8. c #81BF75",
"9. c #539E59",
"0. c #F1EED5",
"q. c #48A55F",
"w. c #3A743D",
"e. c #869584",
"r. c #BC9988",
"t. c #568930",
"y. c #3CA23B",
"u. c #667F55",
"i. c #3C7259",
"p. c #80D238",
"a. c #535846",
"s. c #A98476",
"d. c #F5E9D7",
"f. c #34AB53",
"g. c #C1E32D",
"h. c #24B94F",
"j. c #57BFC9",
"k. c #B1C6B3",
"l. c #EDDABB",
"z. c #15564C",
"x. c #9DAC9F",
"c. c #96917E",
"v. c #408D9A",
"b. c #4CA79C",
"n. c #3BA798",
"m. c #D4C1A4",
"M. c #7CBCB1",
"N. c #34BC4E",
"B. c #60BCC0",
"V. c #E0D6B2",
"C. c #D8E4CE",
"Z. c #EBE5C2",
"A. c #81DC3C",
"S. c #245745",
"D. c #36A647",
"F. c #3BA17E",
"G. c #95B696",
"H. c #36635E",
"J. c #3B3638",
"K. c #1C2B2F",
"L. c #3C661F",
"P. c #55ADC9",
"I. c #C8DCAB",
"U. c #B7CEA1",
"Y. c #EAFBDC",
"T. c #428E6B",
"R. c #457365",
"E. c #76BF7D",
"W. c #6FC246",
"Q. c #518473",
"!. c #99CC85",
"~. c #424B4C",
"^. c #4E575C",
"/. c #3E5D68",
"(. c #5E7C8B",
"). c #7F8886",
"_. c #708480",
/* pixels */
"                                                                ",
"                                . # .                           ",
"                              % @.* X #                         ",
"                            l z v c 2.> +                       ",
"                          l :.q 0 v 0.1.x @                     ",
"                      . ;.c r 0 0 d.S z >.m %                   ",
"                    O o e.q q r ! l.U r.K 8 >                   ",
"              X o h 5 t.w k.) r ! U S s.L 7 n .                 ",
"            X o &.4.e T / u G.) Y.Z.W W E n 4 .                 ",
"            o *.M M g.e T L.d } } I.V.m.c.7 5                   ",
"            + 3.7.Y ~ e ~ / w A !.R U.C.x.V 5                   ",
"            * N 6.y y Y y J ] 6 G E.[ M.H V w .                 ",
"            k G J p.( ( A.W.F f [ _ F.I H = 4 .                 ",
"            Z 9.y.< < < < D.D Q.T._ n.j.9 = 7 X                 ",
"            F q.P i a a N.p 1 R.S.b.Q t C = = X                 ",
"            A 1 p h.i i p X.| ..H.B.t s C -.b X                 ",
"            #.D 5.f.a P X.d : _.o.Q t I 9 = 4 .                 ",
"            j j 6 u 1 1  ...~.).o.s s ^ 9 <.*                   ",
"              X % , Z | f (.^.O./.^ P.v.i.,.-                   ",
"                . O - u '  .{ O.K.` ` z.w.=.#                   ",
"                    X @ , ' + K J.{ f d 8.,                     ",
"                      O @ B ] E L - b R x                       ",
"                        X & 8 - 3 m u.$                         ",
"                            > > a.N o                           ",
"                            * , * 8 + X                         ",
"                          : @ % $ @ B - ;                       ",
"                      O : & % $.%.2 - k h X                     ",
"                    # : & 2 3 g g ; +.@ 6 o                     ",
"                    . $ & 2 3 ; X X ; $ o X                     ",
"                      . O + + $ O O # . .                       ",
"                          . . . . .                             ",
"                                                                "
};
