/* XPM */
static char *_6fa9e5420a34241b6ff9e5b6996f9b6671Ny19nmJRRrYMk[] = {
/* columns rows colors chars-per-pixel */
"32 32 143 2 ",
"   c None",
".  c #17120B",
"X  c #191008",
"o  c #0F1313",
"O  c #111411",
"+  c #1C1A19",
"@  c #2E190E",
"#  c #291A10",
"$  c #252618",
"%  c #3A271C",
"&  c #3D2E1E",
"*  c #1C333C",
"=  c #2D2B22",
"-  c #2E2D2A",
";  c #342C24",
":  c #3C2E23",
">  c #332E2E",
",  c #3C2F2E",
"<  c #2E3428",
"1  c #313125",
"2  c #3C3623",
"3  c #3F342D",
"4  c #2A3134",
"5  c #353630",
"6  c #3B3634",
"7  c #402617",
"8  c #432B18",
"9  c #4E311A",
"0  c #54341E",
"q  c #55381E",
"w  c #423221",
"e  c #4C3422",
"r  c #423529",
"t  c #49392A",
"y  c #533723",
"u  c #543B24",
"i  c #5C3B21",
"p  c #563C2B",
"a  c #473B31",
"s  c #663C22",
"d  c #613E29",
"f  c #6D421C",
"g  c #7E451B",
"h  c #78481E",
"j  c #4D453B",
"k  c #5A4330",
"l  c #5F4835",
"z  c #654126",
"x  c #6B4326",
"c  c #67452D",
"v  c #68492F",
"b  c #74472B",
"n  c #734D2F",
"m  c #7D4D2D",
"M  c #7E512C",
"N  c #654734",
"B  c #6E4932",
"V  c #734D32",
"C  c #7B4D31",
"Z  c #724C38",
"A  c #7A5334",
"S  c #765830",
"D  c #77553A",
"F  c #7C533A",
"G  c #7D5A3B",
"H  c #333E41",
"J  c #424341",
"K  c #824C26",
"L  c #824C2D",
"P  c #82512C",
"I  c #8B542D",
"U  c #8D5B2E",
"Y  c #9A5425",
"T  c #945827",
"R  c #9C5927",
"E  c #93562D",
"W  c #9C562A",
"Q  c #94592E",
"!  c #9A5A2C",
"~  c #844F32",
"^  c #855034",
"/  c #8A5634",
"(  c #855A37",
")  c #8B5A34",
"_  c #865C3C",
"`  c #8E5B39",
"'  c #9A5532",
"]  c #935D33",
"[  c #945F3B",
"{  c #A75F2C",
"}  c #A35E31",
"|  c #A85E30",
" . c #A25F38",
".. c #956A2C",
"X. c #80623B",
"o. c #8E6339",
"O. c #936137",
"+. c #9A6431",
"@. c #95623A",
"#. c #9B643E",
"$. c #A7612E",
"%. c #AD622E",
"&. c #A36233",
"*. c #AC6432",
"=. c #A56C37",
"-. c #AA663B",
";. c #A76A3A",
":. c #AE6C3D",
">. c #B36B3B",
",. c #B37437",
"<. c #B57C3D",
"1. c #BB7A3F",
"2. c #845C42",
"3. c #876443",
"4. c #886449",
"5. c #8B6B4A",
"6. c #966741",
"7. c #966840",
"8. c #9C6D42",
"9. c #A36B41",
"0. c #AE6E44",
"q. c #B26F41",
"w. c #AD7245",
"e. c #A6724D",
"r. c #AA714B",
"t. c #AF794B",
"y. c #B17245",
"u. c #B97B43",
"i. c #B3734B",
"p. c #BA7A48",
"a. c #BE853E",
"s. c #C0843F",
"d. c #D6963F",
"f. c #D5A72E",
"g. c #D7A532",
"h. c #D9A431",
"j. c #DCA23A",
"k. c #A8814A",
"l. c #BE824D",
"z. c #BA854B",
"x. c #C18243",
"c. c #CE924B",
"v. c #D59644",
/* pixels */
"                                                                ",
"                                                                ",
"                                                                ",
"                                                                ",
"                                                                ",
"                                                                ",
"                                                                ",
"                    = & & : ; : ; 1                             ",
"                  r A +.......+.....X.r                         ",
"                ; A ,.d.j.g.f.h.j.v.y.F -                       ",
"                  F =.<.x.s.a.a.a.1.9.G <                       ",
"                  k A ( ` ` ( ) U ) _ u                         ",
"                    t q 0 0 q q 9 8 y c a                       ",
"                  j 3.8.#.@.@.] C 0 z ) n 3                     ",
"                J 5.z.u.i.i.y.:.-.I f Q Q b 6                   ",
"              5 4.l.c.<.w.r.6.o.O.) ^  .$.T n H                 ",
"            $ S t.p.u.w.e.2.e e u y d / &.R E v *               ",
"            2 k.l.y.w.r._ 7 @ N F m M h ! &.! C -               ",
"            , 7.i.r.y.9.i X . w u x ] R %.*.! m -               ",
"            > ) ;.w.y.:.V + + l D ( &.%.%.} ! K ;               ",
"            ; I *.>.q.9.p o O w p x ] ! +.! E m -               ",
"            w L { $.*.:._ % # N D A P g Q ! E m 1               ",
"              m ! R %.>.w._ 0 q q 0 s E W Y T m 1               ",
"              m E } *.*.0.0.#.[ Q I ) @.! Y E B 4               ",
"                C ' | $.-.-.*.-.*.&.] Q W E V                   ",
"                  m ~ P M m I ) U P m K L Z                     ",
"                                                                ",
"                                                                ",
"                                                                ",
"                                                                ",
"                                                                ",
"                                                                "
};
